PathFileType	4	(X/Y/Z)	\\147.46.242.158\로컬 디스크 (e)\MOCAP Data\Iguana Capture\iguana\Project 2\Capture day 6 after broken\Session 2\Take08 good walk.trc
DataRate	CameraRate	NumFrames	NumMarkers	Units	OrigDataRate	OrigDataStartFrame	OrigNumFrames
120.0	120.0	7	23	mm	120.0	45	9299
Frame#	Time	ana:head1			ana:head2			ana:bone1			ana:bone2			ana:bone3			ana:tail1			ana:tail2			ana:tail3			ana:tail4			ana:Rforefoot1			ana:Rforefoot2			ana:Rforefoot3			ana:Lforefoot1			ana:Lforefoot2			ana:Lforefoot3			ana:RhindLeg1			ana:RhindLeg2			ana:RhindLeg3			ana:RhindLeg4			ana:LhindLeg1			ana:LhindLeg2			ana:LhindLeg3			ana:LhindLeg4			
		X1	Y1	Z1	X2	Y2	Z2	X3	Y3	Z3	X4	Y4	Z4	X5	Y5	Z5	X6	Y6	Z6	X7	Y7	Z7	X8	Y8	Z8	X9	Y9	Z9	X10	Y10	Z10	X11	Y11	Z11	X12	Y12	Z12	X13	Y13	Z13	X14	Y14	Z14	X15	Y15	Z15	X16	Y16	Z16	X17	Y17	Z17	X18	Y18	Z18	X19	Y19	Z19	X20	Y20	Z20	X21	Y21	Z21	X22	Y22	Z22	X23	Y23	Z23	

8677	72.300	134.88744	191.31874	42.87288	125.54102	196.78804	43.69449	105.24925	205.64165	37.25903	81.36037	219.08990	33.24279	56.80978	245.68622	25.20519	44.14865	274.67017	17.94347	35.60916	306.80386	10.91274	36.19677	351.87915	7.30666	36.22114	386.53781	6.66730	104.81923	193.72215	24.91042	97.35355	180.01939	22.21687	112.82888	171.88191	16.61027	110.33344	216.57048	21.82388	102.58086	227.73933	16.46833	102.52853	222.54185	3.31584	48.44226	244.15593	18.32875	33.16177	243.19298	15.88610	25.57844	260.29059	7.48629	22.29285	249.49376	4.30940	67.81401	248.93178	19.70756	84.20542	247.96886	23.33831	85.51479	263.94370	10.08877	96.64560	261.91061	10.84860	
8678	72.308	135.45145	191.22957	42.56812	126.26254	196.45276	43.47245	105.79285	205.21907	37.56661	81.85205	218.61028	33.15562	57.65763	244.94539	25.24134	44.60482	274.18790	17.75201	35.73874	306.22354	11.08975	36.06631	351.53015	7.44380	36.20466	386.02612	6.65872	105.49670	192.98755	25.28784	99.45956	178.72722	22.07342	114.91465	171.47606	15.99889	110.78790	216.45447	21.92325	102.87157	227.73885	16.36721	103.70493	222.47327	3.38007	49.31482	243.36720	18.05080	33.48386	243.05949	15.81808	25.72938	260.08972	7.73636	21.60579	248.98615	5.11477	68.27936	248.39780	19.70081	84.44691	246.63158	23.35368	86.38828	262.62439	10.51660	97.56604	260.14362	11.40801	
8679	72.317	136.07704	190.92465	42.42090	126.75561	196.20174	43.48404	105.78773	204.84773	37.18171	82.27992	218.12155	33.08957	57.87425	245.77516	25.80458	45.08470	273.80371	18.03787	36.04703	305.70175	11.18945	36.02860	350.93253	7.39497	36.19013	385.46069	6.63340	106.84507	192.92334	24.38143	101.28623	178.20842	20.96525	117.10191	171.04558	15.12732	111.09395	216.17575	21.89940	103.15982	227.64577	17.04887	104.97831	222.49762	3.73571	49.39625	243.74994	18.77824	33.88820	242.81149	15.92690	25.92922	259.66107	8.29524	21.65929	248.81752	5.23836	68.86821	247.78990	20.00997	85.23608	245.64758	23.85063	87.12297	261.71710	10.61312	98.29755	258.23175	11.53141	
8680	72.325	136.49974	190.51382	42.68279	127.50743	196.17677	43.44275	107.01731	204.71274	37.48143	82.84803	217.64963	33.35968	58.40168	244.93211	24.97454	45.58960	273.44016	18.05218	36.38094	305.31027	11.22622	36.00438	350.35315	7.17561	36.17846	384.85367	6.59583	107.68755	192.59970	24.08108	103.45515	177.86847	19.87755	119.23334	170.79547	14.02537	111.49934	216.00540	21.99059	103.58591	227.45137	16.68080	106.14223	222.46132	3.72966	50.02318	243.22395	18.95523	34.50663	242.64642	16.32405	26.40868	259.59430	8.34225	21.70090	248.99245	5.29300	69.28561	247.30203	20.03890	85.49879	244.97269	24.11313	88.44572	259.67242	9.47387	99.07318	256.99777	11.80940	
8681	72.333	137.04115	190.52199	42.69799	127.76181	195.64876	43.40991	107.46617	204.41670	37.22762	83.42439	217.17320	33.58059	59.04158	243.71062	25.63329	46.29383	272.97964	18.37663	36.86597	304.87436	11.28552	36.35106	349.98062	7.27808	36.17053	384.21722	6.55052	108.56279	192.19147	24.02361	105.33212	177.50812	18.71178	121.56760	171.26497	12.83018	111.98512	215.89624	22.19194	103.84180	227.45576	16.41220	110.50454	219.64217	4.72894	50.58598	242.57140	19.00710	35.10295	242.39000	16.60958	26.71794	259.51340	8.89728	21.89517	248.97301	5.27198	69.79051	247.10373	20.68886	86.09686	243.91110	24.44373	89.23457	258.96869	10.24493	99.88689	255.28992	11.82702	
8682	72.342	137.56323	190.12921	42.48722	128.39993	195.29567	43.13189	108.05634	203.93410	37.12722	83.84294	216.83501	33.62193	59.48375	243.11491	26.04012	46.77172	272.61963	18.64989	36.97843	304.06656	11.10915	36.66098	349.38266	7.17092	36.16725	383.56357	6.50196	109.64734	191.85362	23.78029	106.67445	176.85362	18.43039	123.32181	170.17496	11.64174	112.33154	215.61299	22.16309	104.28719	226.88629	17.86226	110.34532	218.05078	8.10859	51.00388	242.18137	19.19117	35.63341	242.39194	16.77936	26.97940	259.26730	9.11583	21.95253	248.79306	5.31292	70.36219	246.24583	20.94795	86.68572	243.21269	24.43903	90.02335	257.84262	10.52216	100.77512	253.45801	11.86897	
8683	72.350	138.34109	189.83916	42.49792	129.34036	195.24330	43.53558	108.84776	203.87451	37.21442	84.36453	216.37868	33.72101	59.45768	243.50369	25.74293	47.37981	272.29868	18.63110	37.59715	303.53888	11.08549	36.84702	348.72772	7.10481	36.16951	382.90482	6.45466	110.46633	191.51859	23.66898	108.93209	176.54594	17.79771	124.95199	170.15721	10.27119	112.82635	215.40918	22.15487	104.36150	226.28459	17.44864	110.92677	217.83305	8.04386	51.50799	241.97006	19.44003	35.97317	242.33911	17.07642	27.33660	259.31741	9.17071	22.05981	248.78271	5.37489	70.68985	245.79825	20.89680	86.74480	242.29276	24.76744	91.09581	256.57889	10.22415	101.37080	252.38637	11.87524	
